/* XPM */
static char *appicon_xpm[] = {
"20 20 256 3",
"000 c #020003",
"001 c #020009",
"002 c #090003",
"003 c #0F0003",
"004 c #090009",
"005 c #0F0009",
"006 c #020010",
"007 c #020016",
"008 c #02001D",
"009 c #090010",
"010 c #090016",
"011 c #0F0010",
"012 c #0F0016",
"013 c #09001D",
"014 c #0F001D",
"015 c #160003",
"016 c #160009",
"017 c #1C0003",
"018 c #1C0009",
"019 c #020023",
"020 c #020029",
"021 c #090023",
"022 c #0F0023",
"023 c #090029",
"024 c #0F0029",
"025 c #020030",
"026 c #020036",
"027 c #02003D",
"028 c #090030",
"029 c #090036",
"030 c #0F0030",
"031 c #0F0036",
"032 c #0C003D",
"033 c #220003",
"034 c #220009",
"035 c #290003",
"036 c #2F0003",
"037 c #290009",
"038 c #2F0009",
"039 c #220010",
"040 c #220016",
"041 c #22001D",
"042 c #290010",
"043 c #290016",
"044 c #29001D",
"045 c #360003",
"046 c #360009",
"047 c #3C0003",
"048 c #3C0009",
"049 c #220023",
"050 c #220029",
"051 c #290023",
"052 c #2F0023",
"053 c #290029",
"054 c #2F0029",
"055 c #220030",
"056 c #220036",
"057 c #22003D",
"058 c #290030",
"059 c #290036",
"060 c #2F0030",
"061 c #2F0036",
"062 c #2C003D",
"063 c #360029",
"064 c #360033",
"065 c #36003D",
"066 c #3C0033",
"067 c #3C003D",
"068 c #020043",
"069 c #020049",
"070 c #0C0043",
"071 c #0C0049",
"072 c #020053",
"073 c #02005D",
"074 c #0C0053",
"075 c #0C005D",
"076 c #020063",
"077 c #020069",
"078 c #0C0063",
"079 c #0C0069",
"080 c #020073",
"081 c #02007D",
"082 c #0C0073",
"083 c #0C007D",
"084 c #160076",
"085 c #16007D",
"086 c #1C0076",
"087 c #1C007D",
"088 c #220043",
"089 c #2C0043",
"090 c #220056",
"091 c #22005D",
"092 c #2C0056",
"093 c #2C005D",
"094 c #360043",
"095 c #3C0043",
"096 c #360056",
"097 c #36005D",
"098 c #3C0056",
"099 c #3C005D",
"100 c #220063",
"101 c #2C0063",
"102 c #220076",
"103 c #22007D",
"104 c #2C0076",
"105 c #2C007D",
"106 c #360063",
"107 c #3C0063",
"108 c #360076",
"109 c #36007D",
"110 c #3C0076",
"111 c #3C007D",
"112 c #420003",
"113 c #420009",
"114 c #490003",
"115 c #4F0003",
"116 c #490009",
"117 c #4F0009",
"118 c #42001D",
"119 c #49001D",
"120 c #4F001D",
"121 c #560003",
"122 c #560009",
"123 c #5C0003",
"124 c #5C0009",
"125 c #56001D",
"126 c #5C001D",
"127 c #490023",
"128 c #4F0023",
"129 c #4F0029",
"130 c #420036",
"131 c #42003D",
"132 c #49003D",
"133 c #560023",
"134 c #560029",
"135 c #5C0023",
"136 c #5C0029",
"137 c #560030",
"138 c #5C0033",
"139 c #620003",
"140 c #620009",
"141 c #690003",
"142 c #6F0003",
"143 c #690009",
"144 c #6F0009",
"145 c #62001D",
"146 c #6F0010",
"147 c #6F0016",
"148 c #69001D",
"149 c #6F001D",
"150 c #760003",
"151 c #760009",
"152 c #7C0003",
"153 c #7C0009",
"154 c #760010",
"155 c #760016",
"156 c #76001D",
"157 c #7C0010",
"158 c #7C0016",
"159 c #7C001D",
"160 c #620023",
"161 c #620029",
"162 c #690023",
"163 c #6F0023",
"164 c #690029",
"165 c #6F0029",
"166 c #620033",
"167 c #62003D",
"168 c #6C0033",
"169 c #6C003D",
"170 c #760023",
"171 c #760029",
"172 c #7C0023",
"173 c #7C0029",
"174 c #760033",
"175 c #76003D",
"176 c #7C0033",
"177 c #7C003D",
"178 c #420043",
"179 c #4C0043",
"180 c #420056",
"181 c #42005D",
"182 c #4C0056",
"183 c #4C005D",
"184 c #560056",
"185 c #56005D",
"186 c #5C0056",
"187 c #5C005D",
"188 c #420063",
"189 c #4C0063",
"190 c #420076",
"191 c #42007D",
"192 c #4C0076",
"193 c #4C007D",
"194 c #560063",
"195 c #5C0063",
"196 c #560076",
"197 c #56007D",
"198 c #5C0076",
"199 c #5C007D",
"200 c #6C0043",
"201 c #6F0049",
"202 c #620056",
"203 c #62005D",
"204 c #6D0054",
"205 c #6C005D",
"206 c #760043",
"207 c #760049",
"208 c #7C0043",
"209 c #7C0049",
"210 c #760053",
"211 c #76005D",
"212 c #7C0053",
"213 c #7C005D",
"214 c #620063",
"215 c #6C0063",
"216 c #6F0069",
"217 c #620076",
"218 c #62007D",
"219 c #6D0074",
"220 c #6C007D",
"221 c #760063",
"222 c #760069",
"223 c #7C0063",
"224 c #7C0069",
"225 c #760073",
"226 c #76007D",
"227 c #7C0073",
"228 c #7C007D",
"229 c #FF2200",
"230 c #FF2800",
"231 c #FF2F00",
"232 c #FF3600",
"233 c #FF3D00",
"234 c #FF4300",
"235 c #FF4A00",
"236 c #FF5000",
"237 c #FF5700",
"238 c #FF5E00",
"239 c #FF6500",
"240 c #FF6B00",
"241 c #FF7200",
"242 c #FF7900",
"243 c #FF8000",
"244 c #FF8600",
"245 c #FF8D00",
"246 c #FF9400",
"247 c #FF9A00",
"248 c #FFA100",
"249 c #FFAB00",
"250 c #FFB500",
"251 c #FFBC00",
"252 c #FFC200",
"253 c #FFC900",
"254 c #FFD300",
"255 c #FFDD00",
"081083083085087103105105109111191193193197199218220220226228",
"080082082084086102104104108110190192192196198217219219225227",
"080082079244245246247248249249250251252253254254255219225224",
"077079079243244245246247248249249250251252253254254216222224",
"076078078242243100101101106107188189189194195214215215221223",
"073075075241242091093093097099181183183185187203205205211213",
"072074074240241090092092096098180182182184186202204204210212",
"072074071239240241242243244245246247248249249250251204210209",
"069071071238239240241242243244245246247248249249250201207209",
"068070070237238088089089094095178179179247248249200200206208",
"027032032236237057062062065067131132245246247167169169175177",
"026029031235236056059061064066130243244245138166168168174176",
"025028030234235055058060064066241242243137138166168168174173",
"020023024233234050053054063239240241129134136161164165171173",
"019021022232233049051052237238239127128133135160162163170172",
"008013014231232041044235236237118119120125126145148149156159",
"007010012230231040043234235236237238239240241242243147155158",
"006009011229230039042233234235236237238239240241242146154157",
"001004005016018034037038046048113116117122124140143144151153",
"000002003015017033035036045047112114115121123139141142150152"
};
